<svg id="Layer_1" data-name="Layer 1" xmlns="http://www.w3.org/2000/svg" width="336.52" height="70.71" viewBox="0 0 336.52 70.71"><title>Daikin logo - Brandlogos.net</title><polygon points="76.64 0 0 0 0 70.71 76.64 0" style="fill:#44c7f4"/><polygon points="38.32 0 0 0 0 35.37 38.32 0" style="fill:#231f20"/><polygon points="183.67 15.35 173.67 55.35 191.34 55.35 201.34 15.35 183.67 15.35" style="fill:#00a0e3"/><path d="M356.52,364l-22.73,40h11.69l3.77-6.67h16.23l1.21,6.67h17.26l-7.34-40ZM359,387.18H355l6.54-11.54,2.12,11.54Z" transform="translate(-215.74 -348.64)" style="fill:#00a0e3"/><polygon points="264.39 15.35 254.42 55.35 272.09 55.35 282.07 15.35 264.39 15.35" style="fill:#00a0e3"/><polygon points="256.5 15.35 238.39 15.35 223.23 28.43 226.53 15.35 209.59 15.35 199.61 55.35 216.5 55.35 219.95 41.54 228.98 55.35 249.43 55.35 234.29 34.4 256.5 15.35" style="fill:#00a0e3"/><path d="M319,364H292.33l-10,40H313c12.24,0,24.27-9.11,24.27-23.06C337.28,364.53,319,364,319,364m.9,18.16s-1.15,13-12.22,13h-6.26L307,373.59h5.68c2,0,7.92.54,7.28,8.58" transform="translate(-215.74 -348.64)" style="fill:#00a0e3"/><polygon points="324.29 15.34 318.39 38.9 310.54 15.34 290.88 15.34 280.89 55.35 293.12 55.35 299.07 31.59 306.95 55.35 326.52 55.35 336.52 15.34 324.29 15.34" style="fill:#00a0e3"/></svg>