<svg height="230" width="230" viewBox="53.645 61.282 29.809 75.027" xmlns="http://www.w3.org/2000/svg"><path d="M65.952 114.5V75.688l-2.404-.698a2.17 2.17 0 0 1-1.4-1.902v-9.902c0-.698.702-1.903 1.502-1.903h18.303c.804 0 1.502 1.103 1.502 1.8v10.005c0 .8-.6 1.702-1.4 1.902-.4.102-2.102.6-2.4.698h-.098v38.814l2.698.902c.6.2 1.2 1.102 1.2 1.8v9.902c0 .902-.8 1.902-1.6 1.902H63.846c-.898 0-1.698-1.102-1.698-1.902v-10.102c-.6.2-1.2.498-1.4 1.102-.102.2-.102.4-.2.498l-3 2.302v-1.302l6.804-5.102v.604zM54.144 69.288c.302-.2.702-.702 1.2-.702h1.404l-3.102 2.302c0-.498.098-1.298.498-1.6m-.498 3.2 5.204-3.902h1.6l-6.804 5.102zm0 2.8 6.902-5.2v1.2l-6.902 5.204zm0 4.004V77.99l6.702-5.004c.102 0 .102-.098.2-.098v1.2zm.098 1.498 7.004-5.2c.098.298.298.502.498.8l-7.102 5.302c-.098-.097-.498-.8-.4-.902m2.702 1.902-1.102-.302 7.204-5.502h.204l.996.302v.098zm1.102 1.903V83.49l6.804-5.102v1.102zm0 1.6 6.804-5.103v1.2l-6.804 5.103zm0 2.8 6.804-5.103v1.2l-6.804 5.103zm0 4v-1.2l6.804-5.102v1.2zm0 1.6 6.804-5.102v1.204l-6.804 5.102zm0 2.804 6.804-5.102v1.2l-6.804 5.102zm0 4v-1.2l6.804-5.204v1.302zm0 2.8v-1.2l6.804-5.204v1.302zm0 1.6 6.804-5.2v1.2l-6.804 5.2zm0 4.005v-1.205l6.804-5.2v1.2zm0 2.8V111.3l6.804-5.103v1.2zm0 1.498 6.804-5.103v1.2l-6.804 5.205zm0 2.804 6.804-5.107v1.103l-6.804 5.204zm-3.902 8.4 6.902-5.102v1.2l-6.902 5.204zm1.4-2.6-1.102.8c0-.302.902-.8 1.102-.8m-1.4 6.605v-1.205l6.702-5c.102 0 .102-.102.2-.102v1.2zm0 2.8v-1.2l6.902-5.107v1.204zm0 1.6 6.804-5.103h.098a3 3 0 0 0 .2 1l-7.004 5.2c-.098-.195-.098-.502-.098-.8zm.8 2.2h.102l7-5.303c.302 0 .502.103.698.103h.804l-7.506 5.6c-.396 0-.898-.098-1.098-.4m4.902.4h-1.6l7.4-5.6h1.6zm2.102 0 7.4-5.6h1.6l-7.4 5.6zm3.698 0 7.507-5.6h1.6l-7.507 5.6zm5.405 0h-1.6l6.097-4.6v1.195zm2.897 0h-.795l2.298-1.8c0 .8-.698 1.8-1.503 1.8"/></svg>